<svg width="260" height="55" viewBox="0 0 260 55" fill="none" xmlns="http://www.w3.org/2000/svg">
<path fill-rule="evenodd" clip-rule="evenodd" d="M21.9267 24.847C21.3987 24.8314 21.0266 24.3909 21.0612 23.8665L21.1003 23.2748C21.1283 22.8507 21.4134 22.4903 21.7916 22.3239H30.2259C32.7588 22.3239 34.8122 20.2706 34.8122 17.7377C34.8122 15.2048 32.7588 13.1514 30.2259 13.1514H24.6993C21.3613 13.1012 17.5253 13.0609 15.7502 13.0453C15.2076 13.0405 14.7693 12.6167 14.7452 12.078L14.7299 11.7376C14.7045 11.1696 15.1482 10.6921 15.7205 10.6838C19.2024 10.6334 29.8345 10.5409 30.7821 10.6669C31.8751 10.8121 32.9203 11.197 33.8392 11.7927C34.7581 12.3883 35.5271 13.1793 36.0883 14.1063C36.6496 15.0333 36.9886 16.0724 37.08 17.1455C37.1714 18.2186 37.0129 19.298 36.6161 20.3028C36.2194 21.3076 35.5949 22.2117 34.7894 22.9473C33.9838 23.683 33.0182 24.2311 31.9648 24.5506C31.0655 24.8233 24.5055 24.9234 21.9267 24.847Z" fill="#155EEF"/>
<path fill-rule="evenodd" clip-rule="evenodd" d="M14.9381 32.7203C14.9522 32.2693 15.3056 31.9276 15.7514 31.8842L16.2872 31.832C16.9279 31.7696 17.4944 32.3382 17.4916 32.9868C17.4882 33.7622 17.518 34.6984 17.5609 35.484L17.5609 35.6363C17.5609 35.8941 17.5819 36.1469 17.6223 36.3933C17.6303 36.4882 17.6384 36.5759 17.6466 36.6551C17.6673 36.7015 17.6861 36.7437 17.7033 36.7822C18.2136 38.7924 20.0352 40.2795 22.2041 40.2795C24.7684 40.2795 26.8472 38.2007 26.8472 35.6363L26.8472 26.2119C26.9645 25.8034 27.3349 25.5047 27.7778 25.4982L28.1788 25.4923C28.7188 25.4843 29.1665 25.9157 29.1773 26.4595C29.2284 29.0382 29.3129 35.406 29.1902 36.3312C29.045 37.4268 28.6601 38.4745 28.0644 39.3957C27.4688 40.3169 26.6778 41.0877 25.7508 41.6503C24.8238 42.2129 23.7848 42.5528 22.7116 42.6444C21.6385 42.736 20.5591 42.5771 19.5543 42.1794C18.5495 41.7817 17.6454 41.1557 16.9098 40.3482C16.1741 39.5407 15.626 38.5727 15.3065 37.5167C15.043 36.6456 14.8926 34.1732 14.9381 32.7203Z" fill="#155EEF"/>
<rect x="21.054" y="23.0882" width="2.29312" height="13.7587" rx="1.01916" fill="#155EEF"/>
<path d="M28.1521 16.4635C28.715 16.4635 29.1713 16.9198 29.1713 17.4827L29.1713 20.7719C29.1713 21.3348 28.715 21.7911 28.1521 21.7911L27.8882 21.7911C27.3402 21.7911 26.8902 21.3576 26.8698 20.8099L26.8334 19.835C26.8131 19.2908 26.3686 18.8587 25.824 18.8538L15.9131 18.7656C15.3537 18.7606 14.903 18.3058 14.903 17.7465L14.903 17.4827C14.903 16.9198 15.3593 16.4635 15.9221 16.4635L28.1521 16.4635Z" fill="#155EEF"/>
<path d="M61.2019 40.5392C59.3715 40.5392 57.8461 40.0622 56.6259 39.1081C55.4167 38.1541 54.5681 36.8673 54.08 35.2477L58.0403 34.2992C58.1623 34.9759 58.5173 35.5583 59.1052 36.0464C59.6932 36.5345 60.3421 36.7785 61.0521 36.7785C61.518 36.7785 62.0117 36.6565 62.5331 36.4125C63.0545 36.1573 63.4427 35.7524 63.6979 35.1977C63.8532 34.8428 63.9419 34.4212 63.9641 33.9331C63.9974 33.4339 64.014 32.857 64.014 32.2025V16.0784H68.0742V32.2025C68.0742 32.9458 68.0686 33.6003 68.0576 34.1661C68.0576 34.7207 68.0021 35.2477 67.8912 35.7469C67.7913 36.235 67.5861 36.7397 67.2755 37.2611C66.621 38.3926 65.7668 39.2246 64.7129 39.7571C63.659 40.2785 62.4887 40.5392 61.2019 40.5392ZM79.1557 40.5558C77.8245 40.5558 76.7262 40.334 75.8609 39.8902C74.9957 39.4465 74.3079 38.8807 73.7976 38.1929C73.2873 37.5052 72.9101 36.773 72.6661 35.9965C72.422 35.2199 72.2611 34.4878 72.1835 33.8C72.1169 33.1011 72.0837 32.5353 72.0837 32.1027V22.0688H76.1438V30.7216C76.1438 31.2762 76.1826 31.903 76.2603 32.6019C76.3379 33.2897 76.5154 33.9553 76.7928 34.5987C77.0812 35.231 77.5027 35.7524 78.0574 36.1629C78.6232 36.5733 79.3831 36.7785 80.3371 36.7785C80.8474 36.7785 81.3521 36.6953 81.8513 36.5289C82.3505 36.3625 82.7998 36.0797 83.1992 35.6803C83.6096 35.2698 83.9369 34.7096 84.1809 33.9997C84.425 33.2897 84.547 32.3911 84.547 31.304L86.9265 32.319C86.9265 33.8499 86.627 35.2366 86.028 36.479C85.44 37.7215 84.5692 38.7143 83.4155 39.4576C82.2618 40.1897 80.8418 40.5558 79.1557 40.5558ZM85.0296 40.04V34.4656H84.547V22.0688H88.5739V40.04H85.0296ZM99.5222 40.5392C97.3036 40.5392 95.5009 40.04 94.1142 39.0416C92.7276 38.0432 91.8845 36.6399 91.585 34.8317L95.6784 34.1993C95.8892 35.0868 96.3551 35.7857 97.0762 36.296C97.7972 36.8063 98.7069 37.0614 99.8051 37.0614C100.77 37.0614 101.513 36.8728 102.035 36.4957C102.567 36.1074 102.834 35.5805 102.834 34.9149C102.834 34.5044 102.734 34.1772 102.534 33.9331C102.345 33.678 101.924 33.4339 101.269 33.2009C100.615 32.968 99.611 32.674 98.2576 32.319C96.7489 31.9197 95.5508 31.4926 94.6634 31.0377C93.7759 30.5718 93.138 30.0227 92.7498 29.3904C92.3615 28.7581 92.1674 27.9926 92.1674 27.0941C92.1674 25.9736 92.4613 24.9974 93.0493 24.1654C93.6372 23.3334 94.4581 22.6956 95.512 22.2518C96.5659 21.797 97.8083 21.5696 99.2394 21.5696C100.637 21.5696 101.874 21.7859 102.95 22.2185C104.037 22.6512 104.914 23.2669 105.579 24.0656C106.245 24.8643 106.655 25.8017 106.811 26.8777L102.717 27.6099C102.617 26.8445 102.268 26.2399 101.669 25.7961C101.081 25.3524 100.293 25.1028 99.3059 25.0473C98.363 24.9919 97.6031 25.1361 97.0262 25.48C96.4494 25.8128 96.161 26.2842 96.161 26.8944C96.161 27.2383 96.2774 27.5322 96.5104 27.7763C96.7434 28.0204 97.2093 28.2644 97.9082 28.5085C98.6181 28.7525 99.672 29.052 101.07 29.407C102.501 29.7731 103.643 30.1946 104.498 30.6717C105.363 31.1376 105.984 31.6978 106.361 32.3523C106.75 33.0068 106.944 33.8 106.944 34.7318C106.944 36.54 106.284 37.96 104.964 38.9917C103.655 40.0233 101.841 40.5392 99.5222 40.5392ZM120.456 40.04C119.269 40.2618 118.104 40.3561 116.961 40.3229C115.83 40.3007 114.815 40.0954 113.916 39.7072C113.018 39.3078 112.336 38.681 111.87 37.8269C111.459 37.0503 111.243 36.2572 111.221 35.4473C111.198 34.6375 111.187 33.7223 111.187 32.7017V17.0768H115.181V32.4688C115.181 33.1898 115.187 33.8222 115.198 34.3657C115.22 34.9093 115.336 35.353 115.547 35.6969C115.946 36.3625 116.584 36.7342 117.461 36.8118C118.337 36.8895 119.335 36.8451 120.456 36.6787V40.04ZM107.926 25.2137V22.0688H120.456V25.2137H107.926ZM129.652 40.04V16.0784H139.552C139.785 16.0784 140.085 16.0895 140.451 16.1117C140.817 16.1228 141.155 16.156 141.466 16.2115C142.853 16.4223 143.995 16.8826 144.894 17.5926C145.803 18.3026 146.475 19.2012 146.907 20.2883C147.351 21.3644 147.573 22.5624 147.573 23.8825C147.573 25.1916 147.351 26.3896 146.907 27.4768C146.463 28.5528 145.787 29.4458 144.877 30.1558C143.979 30.8658 142.842 31.3262 141.466 31.5369C141.155 31.5813 140.811 31.6146 140.434 31.6368C140.068 31.659 139.774 31.6701 139.552 31.6701H133.662V40.04H129.652ZM133.662 27.9261H139.386C139.608 27.9261 139.857 27.915 140.135 27.8928C140.412 27.8706 140.667 27.8262 140.9 27.7597C141.566 27.5933 142.087 27.2993 142.464 26.8777C142.853 26.4562 143.124 25.9792 143.28 25.4467C143.446 24.9142 143.529 24.3928 143.529 23.8825C143.529 23.3722 143.446 22.8509 143.28 22.3184C143.124 21.7748 142.853 21.2922 142.464 20.8707C142.087 20.4492 141.566 20.1552 140.9 19.9888C140.667 19.9222 140.412 19.8834 140.135 19.8723C139.857 19.8501 139.608 19.839 139.386 19.839H133.662V27.9261ZM150.241 40.04V22.0688H153.785V26.4451L153.353 25.8793C153.575 25.2803 153.868 24.7367 154.235 24.2486C154.612 23.7494 155.061 23.339 155.582 23.0173C156.026 22.7177 156.514 22.4848 157.047 22.3184C157.59 22.1409 158.145 22.0355 158.711 22.0022C159.276 21.9578 159.826 21.98 160.358 22.0688V25.8128C159.826 25.6575 159.21 25.6076 158.511 25.663C157.823 25.7185 157.202 25.9126 156.647 26.2454C156.093 26.5449 155.638 26.9277 155.283 27.3936C154.939 27.8595 154.684 28.392 154.517 28.991C154.351 29.579 154.268 30.2168 154.268 30.9046V40.04H150.241ZM170.48 40.5392C168.683 40.5392 167.113 40.1343 165.771 39.3245C164.429 38.5146 163.386 37.3998 162.643 35.9798C161.911 34.5488 161.544 32.907 161.544 31.0544C161.544 29.1685 161.922 27.5156 162.676 26.0957C163.43 24.6757 164.479 23.5664 165.821 22.7677C167.163 21.9689 168.716 21.5696 170.48 21.5696C172.288 21.5696 173.864 21.9745 175.206 22.7843C176.548 23.5941 177.591 24.7145 178.334 26.1456C179.077 27.5655 179.449 29.2018 179.449 31.0544C179.449 32.9181 179.072 34.5654 178.318 35.9965C177.574 37.4164 176.532 38.5313 175.189 39.3411C173.847 40.1398 172.277 40.5392 170.48 40.5392ZM170.48 36.7785C172.078 36.7785 173.265 36.2461 174.041 35.1811C174.818 34.1161 175.206 32.7406 175.206 31.0544C175.206 29.3127 174.812 27.9261 174.024 26.8944C173.237 25.8516 172.055 25.3302 170.48 25.3302C169.404 25.3302 168.517 25.5743 167.818 26.0624C167.13 26.5394 166.62 27.2105 166.287 28.0758C165.954 28.93 165.788 29.9229 165.788 31.0544C165.788 32.796 166.181 34.1882 166.969 35.231C167.768 36.2627 168.938 36.7785 170.48 36.7785ZM179.787 48.0272V44.2665H180.636C181.612 44.2665 182.306 44.0391 182.716 43.5843C183.126 43.1295 183.332 42.4583 183.332 41.5709V22.0688H187.325V43.368C187.325 44.8212 186.898 45.9583 186.044 46.7792C185.201 47.6112 184.025 48.0272 182.516 48.0272H179.787ZM183.332 19.3398V15.6624H187.325V19.3398H183.332ZM199.542 40.5392C197.723 40.5392 196.125 40.1454 194.75 39.3577C193.374 38.5701 192.298 37.4774 191.521 36.0797C190.756 34.6819 190.373 33.0734 190.373 31.2541C190.373 29.2905 190.75 27.5877 191.505 26.1456C192.259 24.6924 193.307 23.5664 194.65 22.7677C195.992 21.9689 197.545 21.5696 199.309 21.5696C201.173 21.5696 202.753 22.0078 204.051 22.8841C205.36 23.7494 206.331 24.9752 206.963 26.5616C207.596 28.1479 207.834 30.0172 207.679 32.1693H203.702V30.7049C203.691 28.7525 203.347 27.327 202.67 26.4285C201.994 25.5299 200.929 25.0806 199.475 25.0806C197.834 25.0806 196.613 25.5909 195.815 26.6115C195.016 27.621 194.616 29.102 194.616 31.0544C194.616 32.8737 195.016 34.2825 195.815 35.2809C196.613 36.2793 197.778 36.7785 199.309 36.7785C200.296 36.7785 201.145 36.5622 201.855 36.1296C202.576 35.6858 203.131 35.048 203.519 34.216L207.479 35.4141C206.791 37.0337 205.726 38.2928 204.284 39.1913C202.853 40.0899 201.272 40.5392 199.542 40.5392ZM193.352 32.1693V29.1408H205.715V32.1693H193.352ZM218.53 40.5392C216.678 40.5392 215.097 40.1287 213.788 39.3078C212.479 38.4758 211.475 37.3443 210.776 35.9133C210.088 34.4822 209.739 32.8626 209.728 31.0544C209.739 29.2129 210.099 27.5822 210.809 26.1622C211.53 24.7312 212.551 23.6108 213.871 22.8009C215.191 21.98 216.761 21.5696 218.58 21.5696C220.621 21.5696 222.346 22.0854 223.755 23.1171C225.175 24.1377 226.101 25.5354 226.534 27.3104L222.54 28.392C222.23 27.4269 221.714 26.6781 220.993 26.1456C220.272 25.602 219.451 25.3302 218.53 25.3302C217.487 25.3302 216.628 25.5798 215.951 26.079C215.274 26.5671 214.775 27.2438 214.453 28.1091C214.132 28.9744 213.971 29.9561 213.971 31.0544C213.971 32.7628 214.354 34.1439 215.119 35.1977C215.884 36.2516 217.022 36.7785 218.53 36.7785C219.595 36.7785 220.433 36.5345 221.043 36.0464C221.664 35.5583 222.13 34.8538 222.441 33.9331L226.534 34.8483C225.979 36.6787 225.009 38.0876 223.622 39.0749C222.235 40.0511 220.538 40.5392 218.53 40.5392ZM239.736 40.04C238.549 40.2618 237.384 40.3561 236.242 40.3229C235.11 40.3007 234.095 40.0954 233.197 39.7072C232.298 39.3078 231.616 38.681 231.15 37.8269C230.739 37.0503 230.523 36.2572 230.501 35.4473C230.479 34.6375 230.468 33.7223 230.468 32.7017V17.0768H234.461V32.4688C234.461 33.1898 234.467 33.8222 234.478 34.3657C234.5 34.9093 234.616 35.353 234.827 35.6969C235.227 36.3625 235.864 36.7342 236.741 36.8118C237.617 36.8895 238.616 36.8451 239.736 36.6787V40.04ZM227.206 25.2137V22.0688H239.736V25.2137H227.206ZM249.874 40.5392C247.655 40.5392 245.852 40.04 244.466 39.0416C243.079 38.0432 242.236 36.6399 241.936 34.8317L246.03 34.1993C246.241 35.0868 246.707 35.7857 247.428 36.296C248.149 36.8063 249.058 37.0614 250.157 37.0614C251.122 37.0614 251.865 36.8728 252.386 36.4957C252.919 36.1074 253.185 35.5805 253.185 34.9149C253.185 34.5044 253.085 34.1772 252.886 33.9331C252.697 33.678 252.275 33.4339 251.621 33.2009C250.966 32.968 249.962 32.674 248.609 32.319C247.1 31.9197 245.902 31.4926 245.015 31.0377C244.127 30.5718 243.49 30.0227 243.101 29.3904C242.713 28.7581 242.519 27.9926 242.519 27.0941C242.519 25.9736 242.813 24.9974 243.401 24.1654C243.989 23.3334 244.81 22.6956 245.863 22.2518C246.917 21.797 248.16 21.5696 249.591 21.5696C250.989 21.5696 252.226 21.7859 253.302 22.2185C254.389 22.6512 255.265 23.2669 255.931 24.0656C256.596 24.8643 257.007 25.8017 257.162 26.8777L253.069 27.6099C252.969 26.8445 252.619 26.2399 252.02 25.7961C251.432 25.3524 250.645 25.1028 249.657 25.0473C248.714 24.9919 247.955 25.1361 247.378 25.48C246.801 25.8128 246.512 26.2842 246.512 26.8944C246.512 27.2383 246.629 27.5322 246.862 27.7763C247.095 28.0204 247.561 28.2644 248.26 28.5085C248.97 28.7525 250.023 29.052 251.421 29.407C252.852 29.7731 253.995 30.1946 254.849 30.6717C255.714 31.1376 256.336 31.6978 256.713 32.3523C257.101 33.0068 257.295 33.8 257.295 34.7318C257.295 36.54 256.635 37.96 255.315 38.9917C254.006 40.0233 252.192 40.5392 249.874 40.5392Z" fill="#155EEF"/>
</svg>
